<svg id="visual" viewBox="0 0 900 900" width="900" height="900" xmlns="http://www.w3.org/2000/svg" xmlns:xlink="http://www.w3.org/1999/xlink" version="1.1"><g transform="translate(446.6011437711812 459.337366233128)"><path d="M167.6 -253.2C233.9 -218.3 315.7 -199.9 347.1 -152.3C378.5 -104.7 359.5 -27.9 349.9 51.5C340.4 130.9 340.2 212.8 301.3 265.4C262.4 318 184.7 341.3 113.3 342.4C41.9 343.5 -23.3 322.4 -81.1 296.2C-138.8 270.1 -189.2 238.8 -223.3 195.6C-257.4 152.4 -275.2 97.3 -302.9 31.8C-330.6 -33.7 -368.1 -109.5 -354.9 -171.9C-341.6 -234.3 -277.6 -283.3 -210 -317.6C-142.4 -351.9 -71.2 -371.4 -10.2 -355.5C50.7 -339.5 101.4 -288.1 167.6 -253.2" fill="#FACC15"></path></g></svg>